/* XPM */
static char * icon_xpm[] = {
"32 32 4 1",
" 	c None",
".	c #7F007F",
"+	c #FF0000",
"@	c #0000FF",
"                       .        ",
"                      ..+       ",
"                     .. +       ",
"                    ..  +       ",
"                   ..   +       ",
"                  ..    ++      ",
"                 ..      +      ",
"                ..       +      ",
"               ..        +      ",
"              ..         ++     ",
"             ..           +     ",
"            ..            +     ",
"           ..             +     ",
"          ..              ++    ",
"         ..                +    ",
"        ..                 +    ",
"       ..                  +    ",
"      ..                   +    ",
"     ..                    ++   ",
"    ..                      +   ",
"   ..                       +   ",
"  ..                        +   ",
" ..                         ++  ",
"@@                           +  ",
" @@@@@                       +  ",
"     @@@@@                   +  ",
"         @@@@@               ++ ",
"             @@@@@@           + ",
"                  @@@@@       + ",
"                      @@@@@   + ",
"                          @@@@@+",
"                              @ "};
